<svg xmlns="http://www.w3.org/2000/svg" viewBox="0 0 1873.16 948.06">
  <defs>
    <style>
      .cls-1 {
        fill: #010000;
      }

      .cls-2 {
        fill: #fdfcfc;
      }

      .cls-3 {
        fill: #fefdfd;
      }
    </style>
  </defs>
  <title>SkyText-ReducedBox</title>
  <g id="Layer_2" data-name="Layer 2">
    <g id="SkyText-ReducedBox">
      <g>
        <path class="cls-1" d="M268,613.34q0,54.26,0,108.49c0,10.26-6.15,18.56-15.56,21.49a23.24,23.24,0,0,1-26.15-8.71,22.06,22.06,0,0,1-3.9-12.7c0-2.46-.56-3.28-3.41-3.22-14.48.31-29,.62-43.47.24-26.89-.71-51.68-24.2-54.56-51-1.25-11.64-.53-23.3-.6-35,0-3.49-.95-4.51-4.49-4.43-34.74.78-68.66,29-74.44,63-3.5,20.58,4,38.09,16.73,54.09,11.46,14.39,27,20.47,44.09,24.24,23.63,5.22,47.62,7.57,71.72,9.16,37.76,2.49,75.56,3.1,113.37,2.5,36.8-.59,73.59-1.69,110.37-2.95,28.78-1,57.55-2.43,86.32-3.88q67.85-3.41,135.68-7.09c30.08-1.6,60.16-3.33,90.25-4.93,48.38-2.58,96.76-5.26,145.16-7.6,35.59-1.72,71.2-2.9,106.8-4.45,29.11-1.26,58.24-2,87.37-3,86.6-3,173.22-3.38,259.85-2.67q51.21.43,102.41,2.33,49.41,1.76,98.77,4.86,80.75,5,161.07,14.81c24.82,3,48.89,8.38,70.72,21.19,19.21,11.27,34.49,26.16,42.11,47.65,9.73,27.47.39,56.81-24.14,76.7-19.39,15.72-42.08,24-66.1,29.1-36.35,7.65-73.08,7.66-109.89,4.49-58.18-5-115.1-17.44-172-29.84-152.54-33.26-303.18-74-453.24-116.91-6.88-2-13.71-4.09-20.63-5.9-7.73-2-15.6-.57-23.37-.31-19.3.64-38.58,1.71-57.87,2.7q-65.34,3.33-130.69,6.75c-28.76,1.49-57.53,2.9-86.29,4.46-40.39,2.18-80.78,4.6-121.18,6.65-40.08,2.05-80.17,3.94-120.27,5.45s-80.23,2.62-120.37,3c-24.32.23-48.63.09-72.92-.71-37.27-1.22-74.52-3.32-111-11.7-18.26-4.19-36.4-9.36-50.91-21.88C15.65,764-1.4,734.55.09,696.89c1.28-32.34,16.09-58.38,40.18-79.2a119.35,119.35,0,0,1,76.15-29.76c3.1-.1,3.91-1.06,3.91-4,0-10.31-.79-20.67,1.51-30.87a59,59,0,0,1,57.59-46.33c13-.05,26-.13,39,.11,3.12.06,3.74-.76,4.11-3.73,1.67-13.68,11.26-21.2,25.37-20.32,11.85.75,20.11,10.4,20.12,23.6Q268.05,559.86,268,613.34Zm802.77,175.23,4.67,1.31c117.26,32.21,234.89,63,353.83,88.46,55.29,11.83,110.57,24.09,167.23,27.82,30.16,2,60.27,1.89,90-4.55,17.52-3.79,34.48-9.23,48.43-21.23,15.85-13.64,16.49-29.85,2-45-10.32-10.77-23.23-17.12-37.21-21.52-20-6.3-40.9-7.36-61.51-9.77-46.79-5.47-93.74-9.29-140.76-12q-54.84-3.14-109.75-4.93c-33.62-1.11-67.27-1.64-100.91-2-57.63-.54-115.27.16-172.89,1.48C1099.57,787,1085.25,786.9,1070.79,788.57Z"/>
        <path class="cls-1" d="M821.81,547.83c-9.61,9-19.53,17.57-31.35,23.64A131,131,0,0,1,740,585.88c-.06-10.45.09-20.91-.29-31.35-.16-4.42,1.06-7.11,4.91-9.6,16.19-10.49,27.49-25.13,34.92-42.84,6.11-12,7.67-24.95,7.67-38.26,0-24.79-7.33-47.84-16.11-70.63-9.22-23.89-19.23-47.52-24.67-72.71-4-18.67-5.81-37.49-4.21-56.57,2-23.77,13.34-42.71,29.79-59.37,22.94-23.24,22.75-23.22,55.6-24.84,13.67-.68,27.25-1.49,40.8,1.07a50.73,50.73,0,0,1,17,6.73c3-12.95,6-25.63,9-38.31,8.32-35.3,17.72-70.33,26.7-105.46A123.73,123.73,0,0,0,924.89,8.6c-.12-3.51,1.11-5.08,4.38-5.91,12.65-3.23,25.29-3.77,38-.42,6.24,1.65,9.92,5.69,11.6,11.84,3.33,12.21,1.77,24.43.5,36.7-3.38,32.59-13.58,63.74-19.9,95.71-1.51,7.66-3.27,15.29-3.89,23.11-.13.23-.42.55-.36.66.32.55.65.22.95-.08,10.41-7.05,19.08-16,27.65-25.11a185.38,185.38,0,0,1,23.74-20.59c10.91-8.21,22.7-9.43,35.5-6,25.85,6.86,36.66,23.52,31.2,49.75-6.83,32.75-21.84,61.51-43.3,87.18-18.45,22.07-39.76,41.24-60.45,61-3.87,3.7-4.33,6.32-1.94,11.26,19.42,40.19,44.79,76.35,73.85,110a75,75,0,0,0,44.13,25.47c16.72,3.09,31.88-4.27,40-19.21a12.74,12.74,0,0,1,2.74-3.52c1.89-1.61,4.43-3.76,6.52-2.86s2.4,4.38,1.8,6.72c-4,15.72-5.63,32.25-15.26,46.09-8.47,12.17-19.87,20.44-33.79,25.36-2,.72-4.06,1.47-6.09,2.21-16.64-9.15-34.54-14-53.4-15.52-.28-.58-.68-.86-1.33-.54l0,0c-2.48-4.09-6.74-6.24-10.16-9.3-18.67-16.72-35.92-34.53-48-56.87-11.58-21.37-26.27-40.88-37.69-62.36-4.14-7.78-8.25-15.57-12.63-23.82a43.09,43.09,0,0,0-6.4,15.83c-2.82,12.83-4.89,25.85-8.18,38.55-4.17,16.11-2.65,15.05-18.85,12.65-8.36-1.24-15.73-5.22-22.28-10.64-5.39-4.47-7.9-9.63-8.06-17.12-.93-43.6,5.56-86.26,14.74-128.66,4.51-20.81,8.83-41.65,13.21-62.49.3-1.42.37-2.9.57-4.63-5.67.61-11,1.09-16.37,1.78a14.85,14.85,0,0,0-8.14,3.54c-13.66,12.24-27,24.69-36.59,40.68-12,19.93-14.27,41.51-12.69,64,2.17,31.1,14.13,59.35,25.17,87.91,6.84,17.68,13.91,35.3,17.39,54.08,3.53,19.06,3.69,38-1.21,56.91-2.58,6.07-4.89,12.24-8.32,18C837.22,530.11,829.72,539.12,821.81,547.83Zm206.56-407.47a83,83,0,0,0-20.51,12.16c-17.86,14.23-33.45,31-50.38,46.24-10.34,9.32-15.51,21.59-17.39,35.08-1.74,12.47-1.73,25.16-3.7,37.82C975.71,234.52,1011.08,194.69,1028.37,140.36Z"/>
        <path class="cls-1" d="M1141,501.93c13.11-50.16,26.75-100.19,35.24-151.57-7,11.23-14.16,22.42-21.1,33.72-9.84,16-21.2,30.68-36.06,42.43-2.17,1.71-4,2.27-6.75,1.49-7.52-2.15-15.19-3.75-22.68-5.94-21.84-6.38-32.18-19.91-32.71-42.68-.58-25.07,2.7-49.82,6.47-74.52,5.39-35.36,17.65-68.94,26.74-103.34,3.57-13.5,7.42-26.93,11-40.43a16.76,16.76,0,0,0-1.13-12.61c-1.66-3.13-.14-5.24,3.23-5.6,18.12-1.91,34.72,2.35,49.51,13,5.85,4.21,6.06,10.86,5.61,17.27a126.76,126.76,0,0,1-3,18.71c-6.32,28.29-16.36,55.53-23.77,83.5-7.95,30-13.85,60.35-12.82,91.64,0,.66.07,1.31.15,2.59a20,20,0,0,0,6.09-5.95c15.28-20.22,28.66-41.69,41.92-63.25,20.17-32.83,38-66.86,52.57-102.55a288.88,288.88,0,0,0,15.3-51.1c.78-3.82,2.15-5.29,6.21-4.77,9.62,1.24,19.08,3,28,6.78,11,4.67,16.39,13.08,16.87,24.89.44,10.65-2.21,20.73-5,30.89-9,33.07-15.7,66.71-23.62,100q-22.1,93-43.89,186c-.88,3.72-1.46,7.51-2.17,11.27C1187.83,502.41,1164.4,502.3,1141,501.93Z"/>
        <path class="cls-2" d="M1502.51,656.39c15.88,22.65,31.6,45.05,47.85,68.2-16,0-31.08-.47-46.13.21-7.42.33-11.6-2.12-15.62-8.22-11.46-17.37-23.73-34.19-35.53-51.33-1.88-2.72-3.76-4-7.24-3.93-14,.24-28,.27-42,0-4.26-.08-5.15,1.23-5.1,5.3.24,17.65,0,35.32.21,53,.06,4.27-1.25,5.2-5.3,5.1-12.16-.27-24.32-.22-36.48,0-3.32.06-4.18-.88-4.18-4.17q.13-107,0-213.94c0-3.54,1-4.42,4.46-4.41,37.82.13,75.64,0,113.46.11,11.9,0,23.55,1.76,34.68,6.26,19.14,7.76,32.45,21.26,39.25,40.74a96,96,0,0,1-.14,65.61c-6.54,18.31-19,31.4-36.87,39.24C1506.19,654.83,1504.54,655.52,1502.51,656.39ZM1441.21,548c-14.35,0-26.18.13-38-.09-3.5-.06-4.46.9-4.43,4.42.18,19.66.22,39.32,0,59,0,4,1.4,4.52,4.87,4.49,18.66-.16,37.32-.06,56-.09,7,0,14,.24,21-.79,12.29-1.82,19.5-8.13,22.55-20.16a55.47,55.47,0,0,0,.81-21.82c-2.09-14.43-9.84-22.37-24.28-24.2C1466,547,1452.33,548.49,1441.21,548Z"/>
        <path class="cls-3" d="M444,616c0,35.32-.07,70.65.09,106,0,3.93-1,4.92-4.92,4.91q-75.22-.23-150.46,0c-4.05,0-4.93-1.15-4.85-5,.25-12,.3-24,0-36-.11-4.32,1.31-5.08,5.3-5.06,34.66.16,69.32,0,104,.2,4.12,0,5.32-.92,5.2-5.14-.33-11-.26-22,0-33,.08-3.5-.85-4.43-4.38-4.41-34.82.14-69.65,0-104.47.21-4.83,0-5.68-1.49-5.57-5.83.28-11.65.28-23.33,0-35-.1-4.1.9-5.26,5.12-5.23,34.66.18,69.31,0,104,.23,4.55,0,5.49-1.26,5.36-5.53-.32-10.65-.39-21.33,0-32,.19-4.71-1.44-5.36-5.61-5.34-34.65.16-69.31,0-104,.19-3.94,0-5-1-4.9-4.88.26-12.32.2-24.66,0-37,0-3.14.9-3.86,3.92-3.86q76.21.14,152.45,0c3.82,0,3.78,1.76,3.78,4.51Q444,562.49,444,616Z"/>
        <path class="cls-2" d="M779.53,502.09c-7.43,17.71-18.73,32.35-34.92,42.84-3.85,2.49-5.07,5.18-4.91,9.6.38,10.44.23,20.9.29,31.35-1.18,4.26.93,4.84,4.66,4.83,42.82-.11,85.63,0,128.45-.18,4.36,0,5.65,1,5.51,5.45-.35,11.82-.29,23.66,0,35.48.09,4-1,5-5,4.95-42.82-.15-85.64,0-128.45-.19-4.23,0-5.69.77-5.52,5.35.39,10.82.35,21.66,0,32.48-.13,4.17,1.31,4.82,5,4.81,42.82-.13,85.64,0,128.45-.2,4.45,0,5.58,1.1,5.46,5.49-.33,12-.23,24-.05,36,.06,3.32-.6,4.55-4.3,4.54q-88-.18-175.94,0c-4.14,0-4.43-1.55-4.42-4.92q.15-65,.06-130c0-2-.14-4-.22-6V543.89c.07-12.45.29-24.91.14-37.36,0-3.53,1-4.39,4.44-4.38C725.39,502.25,752.46,502.14,779.53,502.09Z"/>
        <path class="cls-3" d="M1766.87,724.64c-16.44-.42-33.12-2.28-48.93-8.72-29.43-12-48.39-33.55-56.71-64.07-7.26-26.61-7.36-53.58.91-79.89,12.55-40,41.18-61.75,81.91-68,25.23-3.84,50.18-2.21,74.13,7.58,27.91,11.41,45.37,32.27,54.51,60.62.87,2.69.8,4-2.45,4.79-12.57,3.19-25.07,6.67-37.56,10.2-2.17.62-3.24.64-4-1.84-6.33-21.53-21.91-32-43-35.79a103.3,103.3,0,0,0-40.22.63c-23.68,5.1-37.61,19.9-41.8,43.91a106.59,106.59,0,0,0,.76,42.18c4.87,21.64,18.14,35.1,39.76,40,16.84,3.8,33.74,3.75,50.39-1.14,17-5,28.75-15.69,33.9-32.89.94-3.11,2-3.33,4.82-2.52,11.82,3.42,23.66,6.81,35.61,9.71,4.14,1,4.84,2.29,3.52,6.24-12.37,36.87-38.13,58.28-75.78,66.09A161.81,161.81,0,0,1,1766.87,724.64Z"/>
        <path class="cls-3" d="M1029.12,502.45c18.86,1.53,36.76,6.37,53.4,15.52,21.27,13.74,34.68,33.26,42,57.21l-.33.94c-13.49,3.64-27,7.25-40.47,10.94-2,.56-3.46,1.39-4.38-1.72-6.33-21.5-21.91-32.07-43.06-35.77a103.58,103.58,0,0,0-41.68,1c-21,4.88-34.22,17.75-39.25,38.7a102,102,0,0,0,.07,48.51c5,20.52,17.93,33.36,38.48,38.23,17.34,4.12,34.72,4.1,51.85-1.07,16.54-5,28.16-15.43,33.17-32.32,1-3.43,2.45-3.7,5.54-2.79,11.66,3.39,23.34,6.75,35.13,9.61,4.42,1.07,4.58,2.71,3.32,6.48-10.57,31.62-31.44,52.92-63.38,62.63-28.86,8.77-58.12,8.75-86.54-1.1-37.3-12.93-57.74-40.61-64.08-79.08-4-24.23-3.06-48.37,5.51-71.47,13.84-37.27,42-57,80.61-63a145.15,145.15,0,0,1,29.9-1.45c1,.05,2,.29,2.85-.49l0,0C1027.94,502.83,1028.55,502.59,1029.12,502.45Z"/>
        <path class="cls-2" d="M1141,501.93c23.43.37,46.86.48,70.28-.05,2,.11,4,.33,6,.33,33.14,0,66.28.08,99.42-.06,3.78,0,5.15.69,5.05,4.84-.32,12.15-.3,24.31,0,36.46.09,3.93-1.2,4.63-4.79,4.6-21-.17-42,0-62.95-.18-4.07,0-5.25.9-5.24,5.11.15,55.46,0,110.92.22,166.38,0,4.63-1.32,5.45-5.55,5.34q-17.47-.45-35,0c-4.26.11-5.57-.75-5.55-5.36.19-53.63.12-107.25.1-160.88,0-1.65-.15-3.31-.24-5,1.12-4.57-.66-5.81-5.26-5.63-10,.37-20,.16-29.94.1-12.3-.07-24.59-.23-36.89-.35,0-13.16.31-26.32,0-39.48-.12-4.72,1-6.8,5.92-6A19.76,19.76,0,0,0,1141,501.93Z"/>
        <path class="cls-2" d="M477.86,613.31c0-35.31.07-70.62-.09-105.93,0-4.07.89-5.37,5.15-5.26q18,.47,36,0c4.14-.11,4.87,1.23,4.87,5-.12,55.29,0,110.59-.22,165.88,0,5,1.34,5.88,6,5.86,42.63-.19,85.27,0,127.9-.21,4,0,4.94,1.16,4.86,5-.23,12.15-.18,24.32,0,36.47.05,3.25-.47,4.58-4.24,4.57q-87.94-.21-175.87,0c-4.19,0-4.39-1.68-4.39-5Q477.93,666.53,477.86,613.31Z"/>
        <path class="cls-2" d="M1581.89,613.33c0-35.48.06-71-.09-106.43,0-3.64.72-4.86,4.61-4.77,12.48.27,25,.2,37.47,0,3.09,0,3.9.84,3.89,3.91q-.12,107.43,0,214.85c0,3.35-1.25,3.76-4.08,3.73-12.32-.13-24.65-.23-37,.05-4,.08-5-1-4.94-4.94C1582,684.28,1581.89,648.81,1581.89,613.33Z"/>
        <path class="cls-1" d="M693.74,543.89v39.94a167.68,167.68,0,0,1-21.55-4c-13.39-3.59-22.38-11.75-26.82-25-9.93-29.73-3.48-57.08,12-83,12.41-20.79,30-36.72,48.94-51.4a273.93,273.93,0,0,1,27.51-19c2.9-1.74,6.89-4.79,9.33-2.57s.11,6.57-1.16,9.82c-1.57,4-4.57,6.82-7.86,9.48-19.78,16-35.52,35.28-43.68,59.58C683,500,684.18,522.27,693.74,543.89Z"/>
        <path class="cls-1" d="M1130.6,547.62c12.3.12,24.59.28,36.89.35,10,.06,20,.27,29.94-.1,4.6-.18,6.38,1.06,5.26,5.63-2.86,13.13-4.12,26.51-5.86,39.81a79.26,79.26,0,0,0-1,10.4c0,3.49-1.33,5-4.79,5.53-25.54,3.58-48-.94-63.91-23.55-2.11-3-3.68-5.84-2.88-9.56l.34-1C1127.11,566.11,1127.47,556.56,1130.6,547.62Z"/>
        <path class="cls-2" d="M821.81,547.83c7.91-8.71,15.41-17.72,21.51-27.85,3.43-5.71,5.74-11.88,8.32-18,7.65.07,15.31.28,23,.13,3-.06,4,.73,4,3.88-.18,12.65-.16,25.31,0,38,0,2.93-.59,4.08-3.82,4C857.1,547.84,839.45,547.87,821.81,547.83Z"/>
      </g>
    </g>
  </g>
</svg>
