<svg xmlns="http://www.w3.org/2000/svg" viewBox="0 0 300 300">
  <defs>
    <style>
      .cls-1 {
        fill: #081621;
      }

      .cls-2, .cls-3 {
        fill: #fa9e42;
      }

      .cls-2 {
        fill-rule: evenodd;
      }
    </style>
  </defs>
  <title>solar</title>
  <g id="Layer_2" data-name="Layer 2">
    <g id="Layer_1-2" data-name="Layer 1">
      <circle class="cls-1" cx="150" cy="150" r="150"/>
      <circle class="cls-1" cx="150" cy="150" r="102.5"/>
      <path class="cls-2" d="M286,102.57l-35.54-32.2-26-40.08-48.29-2.12L130,14,91.57,43,46.92,61.34,36.29,107.83,14,150.15l22.18,42.26,10.5,46.46,44.61,18.26L129.67,286l46.16-14.29,48.31-2.23,26.11-40.15L285.88,197l-6.15-47.23ZM150,252.5A102.5,102.5,0,1,1,252.5,150,102.5,102.5,0,0,1,150,252.5Z"/>
      <g>
        <path class="cls-3" d="M207.74,93A3.4,3.4,0,0,1,211,97.28L182.3,204.48A3.41,3.41,0,0,1,179,207H92.26A3.4,3.4,0,0,1,89,202.72L117.7,95.52A3.41,3.41,0,0,1,121,93h86.75m0-3H121a6.4,6.4,0,0,0-6.18,4.74L86.08,201.94A6.4,6.4,0,0,0,92.26,210H179a6.4,6.4,0,0,0,6.18-4.74l28.73-107.2A6.4,6.4,0,0,0,207.74,90Z"/>
        <g>
          <path class="cls-3" d="M140.74,93,110.62,206H89.19L119.31,93h21.43m1.3-1h-23.5L87.89,207h23.5L142,92Z"/>
          <path class="cls-3" d="M164.24,93,134.12,206H112.69L142.81,93h21.43m1.3-1H142L111.39,207h23.5L165.54,92Z"/>
          <path class="cls-3" d="M187.74,93,157.62,206H136.19L166.31,93h21.43m1.3-1h-23.5L134.89,207h23.5L189,92Z"/>
          <path class="cls-3" d="M211.24,93,181.12,206H159.69L189.81,93h21.43m1.3-1H189L158.39,207h23.5L212.54,92Z"/>
        </g>
        <g>
          <path class="cls-3" d="M186.63,184.84l-5.8,21.66H88.9l5.8-21.66h91.93m1.3-1h-94L87.59,207.5h94l6.34-23.66Z"/>
          <path class="cls-3" d="M192.67,162.28l-5.5,20.56H95.24l5.5-20.56h91.93m1.31-1H100l-6,22.56h94l6-22.56Z"/>
          <path class="cls-3" d="M198.72,139.72l-5.51,20.56H101.28l5.51-20.56h91.93m1.3-1H106l-6,22.56h94l6-22.56Z"/>
          <path class="cls-3" d="M204.76,117.16l-5.5,20.56H107.33l5.5-20.56h91.93m1.31-1h-94l-6,22.56h94l6-22.56Z"/>
          <path class="cls-3" d="M211.1,93.5l-5.8,21.66H113.37l5.8-21.66H211.1m1.31-1h-94l-6.34,23.66h94l6.34-23.66Z"/>
        </g>
      </g>
    </g>
  </g>
</svg>
