<svg xmlns="http://www.w3.org/2000/svg" viewBox="0 0 158.5 71.8">
  <defs>
    <style>
      .cls-1 {
        fill:  hsla(206, 61%, 8%, 1);
      }

      .cls-2 {
        fill: hsla(30, 95%, 62%, 1);
      }
    </style>
  </defs>
  <title>wcb</title>
  <g id="Layer_2" data-name="Layer 2">
    <g id="Layer_1-2" data-name="Layer 1">
      <g>
        <g>
          <path class="cls-1" d="M22.8,21.3H41v3.1l-4.4.3-1,1.3,7.6,27.1L54.4,21.2h5.1l9.9,31.9L77.9,26l-.7-1.3-4.5-.3V21.3H87.5v3.1l-4.7.7-12,36.4H65.6L55.5,29.8,44.2,61.5H39L27.9,24.9l-5.1-.5Z"/>
          <path class="cls-1" d="M117.9,58a30,30,0,0,1-6.9,3.1,22.69,22.69,0,0,1-6.7,1c-5.7,0-10.2-1.9-13.6-5.7s-5.2-8.8-5.2-15S87.3,30.2,91,26.3s8.4-5.8,14.3-5.8c3.9,0,6.9.7,9.2,2.2a6.94,6.94,0,0,1,3.3,6,4.08,4.08,0,0,1-1.3,3.2,4.7,4.7,0,0,1-3.4,1.2,6.28,6.28,0,0,1-1.9-.3,8.18,8.18,0,0,1-1.9-.9V25a8.82,8.82,0,0,0-2-.9,7.47,7.47,0,0,0-2-.3,10.36,10.36,0,0,0-8.9,4.6C94.2,31.5,93,35.6,93,40.7s1.3,9.1,3.8,12a13.08,13.08,0,0,0,10.4,4.4,16,16,0,0,0,5.3-.9,24.15,24.15,0,0,0,5.3-2.7V58Z"/>
          <path class="cls-1" d="M127.3,0h3.2V23.4a33.17,33.17,0,0,1,5.9-2.2,21.28,21.28,0,0,1,5.5-.7,15.33,15.33,0,0,1,12,5.3c3,3.5,4.6,8.1,4.6,13.8,0,7.2-2,12.7-6.1,16.4s-10.1,5.6-18.1,5.6H123.5V5.6H117V3Zm3.1,57.6a20.08,20.08,0,0,1,2.5.1H135c5.5,0,9.5-1.3,12-4s3.8-6.9,3.8-12.6c0-5.2-1.1-9.2-3.4-12s-5.5-4.2-9.7-4.2a20.2,20.2,0,0,0-3.3.3,38.89,38.89,0,0,0-4,1V57.6Z"/>
        </g>
        <path class="cls-2" d="M46.1,1H9.5L0,40.6l4.4,5.3L4.2,48,8,53l1.9,1.2,4.3,6.3V67l3.6,4.8H36.1l.8-2.7a2.17,2.17,0,0,0-2.2-1.7H20.1l-1.4-1.9V59.1L13.1,51l-2-1.3-2.3-3L9,44.4l-4.2-5,8.3-34,27.5-.1-.4,2.1.9,6.3h2.7Z"/>
      </g>
    </g>
  </g>
</svg>
